<svg version="1.1" id="Layer_1" xmlns="http://www.w3.org/2000/svg" xmlns:xlink="http://www.w3.org/1999/xlink" x="0px" y="0px"
	 width="100%" viewBox="0 0 512 512" enable-background="new 0 0 512 512" xml:space="preserve">
<path fill="#EBEBEB" opacity="1.000000" stroke="none" 
	d="
M225.000000,1.000001 
	C246.020889,1.000000 267.041779,1.000000 288.621765,1.382241 
	C290.016083,2.171416 290.813965,2.802279 291.692566,2.948659 
	C297.075531,3.845488 302.525757,4.395288 307.863708,5.496312 
	C334.408081,10.971422 359.526703,20.207041 383.208160,33.530594 
	C411.088409,49.216434 434.923401,69.709236 455.294495,94.125145 
	C470.019104,111.773476 482.016541,131.261429 491.324280,152.433823 
	C501.152069,174.789124 507.864410,197.908524 511.074249,222.090607 
	C511.211823,223.127335 512.335632,224.033188 513.000000,225.000000 
	C513.000000,246.020889 513.000000,267.041779 512.617798,288.621796 
	C511.828613,290.016052 511.197662,290.813904 511.051300,291.692474 
	C510.154510,297.075439 509.604797,302.525696 508.503754,307.863647 
	C503.028442,334.407928 493.793091,359.526642 480.469482,383.208099 
	C464.783600,411.088318 444.290802,434.923340 419.874878,455.294403 
	C402.226562,470.018982 382.738708,482.016541 361.566223,491.324249 
	C339.210876,501.151917 316.091522,507.864410 291.909454,511.074188 
	C290.872681,511.211761 289.966827,512.335632 289.000000,513.000000 
	C267.979095,513.000000 246.958206,513.000000 225.378204,512.617798 
	C223.983917,511.828583 223.186050,511.197662 222.307480,511.051270 
	C216.924500,510.154449 211.474304,509.604614 206.136353,508.503601 
	C179.591949,503.028564 154.473328,493.792969 130.791840,480.469421 
	C102.911629,464.783539 79.076622,444.290741 58.705547,419.874847 
	C43.980942,402.226532 31.983494,382.738617 22.675758,361.566193 
	C12.847990,339.210876 6.135584,316.091461 2.925751,291.909393 
	C2.788140,290.872650 1.664380,289.966797 1.000004,289.000000 
	C1.000000,267.979095 1.000000,246.958206 1.382242,225.378204 
	C2.171419,223.983932 2.802282,223.186081 2.948654,222.307495 
	C3.845474,216.924515 4.395264,211.474304 5.496292,206.136353 
	C10.971437,179.592010 20.206987,154.473343 33.530563,130.791870 
	C49.216423,102.911629 69.709198,79.076607 94.125168,58.705563 
	C111.773506,43.980968 131.261414,31.983494 152.433838,22.675749 
	C174.789154,12.847983 197.908539,6.135584 222.090607,2.925747 
	C223.127335,2.788134 224.033188,1.664374 225.000000,1.000001 
M128.992416,250.500000 
	C128.992645,262.498657 128.977997,274.497314 128.997223,286.495941 
	C129.017014,298.850861 135.076538,305.014099 147.315460,305.038788 
	C165.980209,305.076416 184.645081,305.049011 203.309906,305.049225 
	C205.088379,305.049225 206.866867,305.049225 209.122421,305.049225 
	C209.122421,307.441528 209.122375,309.235077 209.122437,311.028595 
	C209.123032,329.693420 209.066467,348.358490 209.145386,367.022980 
	C209.193985,378.519379 215.688980,384.930786 227.215286,384.958252 
	C247.213196,385.005981 267.211395,385.004852 287.209290,384.958344 
	C298.775757,384.931427 305.027985,378.608398 305.054962,366.933258 
	C305.098114,348.268524 305.067291,329.603668 305.067749,310.938843 
	C305.067810,309.154541 305.067780,307.370209 305.067780,305.049225 
	C307.395905,305.049225 309.181274,305.049255 310.966644,305.049225 
	C329.631470,305.048920 348.296356,305.083527 366.961060,305.035645 
	C378.656616,305.005615 384.967926,298.753204 384.989716,287.203461 
	C385.027435,267.205536 385.023499,247.207413 384.991486,227.209442 
	C384.972382,215.276184 378.740143,209.039627 366.787750,209.014175 
	C348.123016,208.974411 329.458160,209.003540 310.793335,209.003479 
	C309.023315,209.003479 307.253265,209.003494 305.067810,209.003494 
	C305.067810,206.562042 305.067810,204.763199 305.067810,202.964355 
	C305.067535,184.299530 305.097870,165.634628 305.055847,146.969910 
	C305.029602,135.314362 298.764923,129.025742 287.171021,129.003952 
	C267.506378,128.966995 247.841614,128.983765 228.176895,128.996353 
	C215.319351,129.004578 209.147598,135.131363 209.129379,147.949982 
	C209.103073,166.448105 209.122498,184.946304 209.122406,203.444473 
	C209.122406,205.195251 209.122421,206.946030 209.122421,209.003494 
	C206.542084,209.003494 204.729965,209.003403 202.917847,209.003510 
	C183.919724,209.004639 164.921082,208.922546 145.923691,209.040268 
	C135.623459,209.104080 129.109375,215.753464 129.011337,226.002457 
	C128.936432,233.834320 128.993851,241.667435 128.992416,250.500000 
z"/>
<path fill="#FFFFFF" opacity="1.000000" stroke="none" 
	d="
M224.531342,1.000001 
	C224.033188,1.664374 223.127335,2.788134 222.090607,2.925747 
	C197.908539,6.135584 174.789154,12.847983 152.433838,22.675749 
	C131.261414,31.983494 111.773506,43.980968 94.125168,58.705563 
	C69.709198,79.076607 49.216423,102.911629 33.530563,130.791870 
	C20.206987,154.473343 10.971437,179.592010 5.496292,206.136353 
	C4.395264,211.474304 3.845474,216.924515 2.948654,222.307495 
	C2.802282,223.186081 2.171419,223.983932 1.382242,224.909546 
	C1.000000,150.406296 1.000000,75.812576 1.000000,1.000000 
	C75.354088,1.000000 149.708389,1.000000 224.531342,1.000001 
z"/>
<path fill="#FFFFFF" opacity="1.000000" stroke="none" 
	d="
M513.000000,224.531342 
	C512.335632,224.033188 511.211823,223.127335 511.074249,222.090607 
	C507.864410,197.908524 501.152069,174.789124 491.324280,152.433823 
	C482.016541,131.261429 470.019104,111.773476 455.294495,94.125145 
	C434.923401,69.709236 411.088409,49.216434 383.208160,33.530594 
	C359.526703,20.207041 334.408081,10.971422 307.863708,5.496312 
	C302.525757,4.395288 297.075531,3.845488 291.692566,2.948659 
	C290.813965,2.802279 290.016083,2.171416 289.090454,1.382241 
	C363.593719,1.000000 438.187408,1.000000 513.000000,1.000000 
	C513.000000,75.354088 513.000000,149.708389 513.000000,224.531342 
z"/>
<path fill="#FFFFFF" opacity="1.000000" stroke="none" 
	d="
M1.000004,289.468658 
	C1.664380,289.966797 2.788140,290.872650 2.925751,291.909393 
	C6.135584,316.091461 12.847990,339.210876 22.675758,361.566193 
	C31.983494,382.738617 43.980942,402.226532 58.705547,419.874847 
	C79.076622,444.290741 102.911629,464.783539 130.791840,480.469421 
	C154.473328,493.792969 179.591949,503.028564 206.136353,508.503601 
	C211.474304,509.604614 216.924500,510.154449 222.307480,511.051270 
	C223.186050,511.197662 223.983917,511.828583 224.909546,512.617798 
	C150.406296,513.000000 75.812599,513.000000 1.000000,513.000000 
	C1.000000,438.645905 1.000000,364.291626 1.000004,289.468658 
z"/>
<path fill="#FFFFFF" opacity="1.000000" stroke="none" 
	d="
M289.468658,513.000000 
	C289.966827,512.335632 290.872681,511.211761 291.909454,511.074188 
	C316.091522,507.864410 339.210876,501.151917 361.566223,491.324249 
	C382.738708,482.016541 402.226562,470.018982 419.874878,455.294403 
	C444.290802,434.923340 464.783600,411.088318 480.469482,383.208099 
	C493.793091,359.526642 503.028442,334.407928 508.503754,307.863647 
	C509.604797,302.525696 510.154510,297.075439 511.051300,291.692474 
	C511.197662,290.813904 511.828613,290.016052 512.617798,289.090454 
	C513.000000,363.593719 513.000000,438.187408 513.000000,513.000000 
	C438.645905,513.000000 364.291626,513.000000 289.468658,513.000000 
z"/>
<path fill="#E2574C" opacity="1.000000" stroke="none" 
	d="
M128.992416,250.000000 
	C128.993851,241.667435 128.936432,233.834320 129.011337,226.002457 
	C129.109375,215.753464 135.623459,209.104080 145.923691,209.040268 
	C164.921082,208.922546 183.919724,209.004639 202.917847,209.003510 
	C204.729965,209.003403 206.542084,209.003494 209.122421,209.003494 
	C209.122421,206.946030 209.122406,205.195251 209.122406,203.444473 
	C209.122498,184.946304 209.103073,166.448105 209.129379,147.949982 
	C209.147598,135.131363 215.319351,129.004578 228.176895,128.996353 
	C247.841614,128.983765 267.506378,128.966995 287.171021,129.003952 
	C298.764923,129.025742 305.029602,135.314362 305.055847,146.969910 
	C305.097870,165.634628 305.067535,184.299530 305.067810,202.964355 
	C305.067810,204.763199 305.067810,206.562042 305.067810,209.003494 
	C307.253265,209.003494 309.023315,209.003479 310.793335,209.003479 
	C329.458160,209.003540 348.123016,208.974411 366.787750,209.014175 
	C378.740143,209.039627 384.972382,215.276184 384.991486,227.209442 
	C385.023499,247.207413 385.027435,267.205536 384.989716,287.203461 
	C384.967926,298.753204 378.656616,305.005615 366.961060,305.035645 
	C348.296356,305.083527 329.631470,305.048920 310.966644,305.049225 
	C309.181274,305.049255 307.395905,305.049225 305.067780,305.049225 
	C305.067780,307.370209 305.067810,309.154541 305.067749,310.938843 
	C305.067291,329.603668 305.098114,348.268524 305.054962,366.933258 
	C305.027985,378.608398 298.775757,384.931427 287.209290,384.958344 
	C267.211395,385.004852 247.213196,385.005981 227.215286,384.958252 
	C215.688980,384.930786 209.193985,378.519379 209.145386,367.022980 
	C209.066467,348.358490 209.123032,329.693420 209.122437,311.028595 
	C209.122375,309.235077 209.122421,307.441528 209.122421,305.049225 
	C206.866867,305.049225 205.088379,305.049225 203.309906,305.049225 
	C184.645081,305.049011 165.980209,305.076416 147.315460,305.038788 
	C135.076538,305.014099 129.017014,298.850861 128.997223,286.495941 
	C128.977997,274.497314 128.992645,262.498657 128.992416,250.000000 
z"/>
</svg>